<svg width="256" height="256" viewBox="0 0 256 256" fill="none" xmlns="http://www.w3.org/2000/svg">
<g clip-path="url(#clip0_1_2)">
<path d="M256 127.998C256 198.696 198.694 256 127.997 256C57.3043 256 0 198.696 0 127.998C0 57.3047 57.3043 0 127.997 0C198.694 0 256 57.3047 256 127.998Z" fill="#C6B310"/>
<path d="M203.453 123.763L186.936 123.76C184.986 123.799 183.167 122.781 182.181 121.098C181.195 119.415 181.195 117.331 182.182 115.649C183.169 113.967 184.988 112.949 186.938 112.989L249.13 113.001C251.08 112.962 252.899 113.98 253.885 115.662C254.872 117.345 254.871 119.429 253.884 121.112C252.897 122.794 251.078 123.811 249.128 123.771L215.118 123.765C215.102 123.804 215.085 123.844 215.068 123.883L182.866 201.294C182.045 203.267 180.134 204.567 177.998 204.608C175.776 204.649 173.758 203.322 172.915 201.266L111 50.2128C110.226 48.424 110.478 46.3565 111.66 44.8067C112.843 43.2569 114.77 42.4666 116.7 42.7404C118.63 43.0142 120.261 44.3092 120.965 46.1266L177.936 185.111L203.453 123.763Z" fill="white"/>
<path d="M75.5562 126.851H92.0733C94.0233 126.812 95.8423 127.829 96.8289 129.512C97.8154 131.194 97.8154 133.279 96.8289 134.961C95.8423 136.644 94.0233 137.661 92.0733 137.622H29.8812C27.9312 137.661 26.1122 136.644 25.1256 134.961C24.139 133.279 24.139 131.194 25.1256 129.512C26.1122 127.829 27.9312 126.812 29.8812 126.851H63.8913C63.9076 126.812 63.9244 126.773 63.9417 126.733L96.1286 49.316C96.9499 47.3432 98.8597 46.0426 100.996 46.0009C103.218 45.9595 105.237 47.2864 106.08 49.3421L168.023 200.384C168.798 202.173 168.546 204.24 167.364 205.79C166.182 207.34 164.255 208.131 162.325 207.857C160.395 207.584 158.763 206.289 158.059 204.472L101.062 65.4978L75.5562 126.851ZM60.4874 163.192C60.4682 163.24 60.4484 163.288 60.4278 163.335L43.3193 204.494C42.5943 206.292 40.9597 207.561 39.039 207.818C37.1182 208.075 35.2073 207.281 34.0351 205.738C32.8628 204.194 32.6099 202.14 33.3727 200.359L48.8219 163.192H18.4949C16.5451 163.231 14.7263 162.213 13.7398 160.531C12.7534 158.849 12.7534 156.764 13.7398 155.082C14.7263 153.4 16.5451 152.382 18.4949 152.421L80.6936 152.421C82.6433 152.382 84.4618 153.4 85.4482 155.082C86.4345 156.765 86.4345 158.849 85.4482 160.531C84.4618 162.213 82.6433 163.231 80.6936 163.192H60.4874H60.4874Z" fill="white"/>
</g>
<defs>
<clipPath id="clip0_1_2">
<rect width="256" height="256" fill="white"/>
</clipPath>
</defs>
</svg>
